<?xml version="1.0" encoding="UTF-8"?>
<svg width="48" height="48" viewBox="0 0 48 48" fill="none" xmlns="http://www.w3.org/2000/svg">
  <rect width="48" height="48" rx="24" fill="#00E575" fill-opacity="0.1"/>
  <path d="M24 12C17.37 12 12 17.37 12 24C12 30.63 17.37 36 24 36C30.63 36 36 30.63 36 24C36 17.37 30.63 12 24 12ZM24 34C18.48 34 14 29.52 14 24C14 18.48 18.48 14 24 14C29.52 14 34 18.48 34 24C34 29.52 29.52 34 24 34Z" fill="#00E575"/>
  <path d="M24 16C19.58 16 16 19.58 16 24C16 28.42 19.58 32 24 32C28.42 32 32 28.42 32 24C32 19.58 28.42 16 24 16ZM24 30C21.79 30 20 28.21 20 26C20 23.79 21.79 22 24 22C26.21 22 28 23.79 28 26C28 28.21 26.21 30 24 30Z" fill="#00E575"/>
  <circle cx="24" cy="26" r="2" fill="white"/>
</svg> 