<?xml version="1.0" encoding="UTF-8"?>
<svg width="48" height="48" viewBox="0 0 48 48" fill="none" xmlns="http://www.w3.org/2000/svg">
  <rect width="48" height="48" rx="24" fill="#00E575" fill-opacity="0.1"/>
  <path d="M24 12C18.48 12 14 16.48 14 22V26C14 26.55 13.55 27 13 27H12C11.45 27 11 27.45 11 28V36C11 36.55 11.45 37 12 37H36C36.55 37 37 36.55 37 36V28C37 27.45 36.55 27 36 27H35C34.45 27 34 26.55 34 26V22C34 16.48 29.52 12 24 12Z" fill="#00E575"/>
  <path d="M24 30C25.1 30 26 30.9 26 32C26 33.1 25.1 34 24 34C22.9 34 22 33.1 22 32C22 30.9 22.9 30 24 30Z" fill="white"/>
</svg> 